/* XPM */
static char *result[] = {
/* columns rows colors chars-per-pixel */
"64 64 104 2 ",
"   c #000000",
".  c #000A00",
"X  c #001300",
"o  c #001800",
"O  c #004C3F",
"+  c #00563F",
"@  c #004747",
"#  c #004C45",
"$  c #00444C",
"%  c #004C4C",
"&  c #005345",
"*  c #005D44",
"=  c #00534C",
"-  c #005A4C",
";  c #004553",
":  c #004C53",
">  c #00425D",
",  c #004C5A",
"<  c #005353",
"1  c #005B53",
"2  c #00545B",
"3  c #005A5A",
"4  c #00634D",
"5  c #00684C",
"6  c #00704E",
"7  c #006253",
"8  c #006A54",
"9  c #00645D",
"0  c #00695A",
"q  c #004567",
"w  c #004B64",
"e  c #00456A",
"r  c #004C6B",
"t  c #005464",
"y  c #005A61",
"u  c #00546C",
"i  c #005B6D",
"p  c #004372",
"a  c #004D73",
"s  c #00427A",
"d  c #004B7B",
"f  c #005273",
"g  c #005C74",
"h  c #00537B",
"j  c #005B7C",
"k  c #006262",
"l  c #00666C",
"z  c #006174",
"x  c #006970",
"c  c #00627B",
"v  c gray50",
"b  c #ED1C24",
"n  c #00C400",
"m  c #00CC00",
"M  c #00D400",
"N  c #00DC00",
"B  c #00E400",
"V  c #00EB00",
"C  c #00F300",
"Z  c #00FE00",
"A  c #003E8A",
"S  c #003C92",
"D  c #004583",
"F  c #004B84",
"G  c #00448B",
"H  c #004C8C",
"J  c #005484",
"K  c #005A82",
"L  c #00538B",
"P  c #005A8B",
"I  c #004595",
"U  c #004C94",
"Y  c #00469C",
"T  c #004C9C",
"R  c #005394",
"E  c #005B93",
"W  c #00539C",
"Q  c #005A9B",
"!  c #006485",
"~  c #006985",
"^  c #00618A",
"/  c #006494",
"(  c #006891",
")  c #00639B",
"_  c #006999",
"`  c #0047A0",
"'  c #004CA3",
"]  c #0044AF",
"[  c #004CAC",
"{  c #0053A4",
"}  c #005BA3",
"|  c #0052AC",
" . c #005BAA",
".. c #0045B3",
"X. c #004CB3",
"o. c #004BBB",
"O. c #0052B3",
"+. c #005BB5",
"@. c #0052BC",
"#. c #0058BB",
"$. c #0064A3",
"%. c #0060B0",
"&. c #0054C2",
"*. c white",
/* pixels */
"Z < C & Z % Z 3 Z : Z 2 Z & Z - Z * Z & Z & Z < Z 2 Z % Z - Z : Z - Z * Z 1 Z - Z ; Z + Z - Z 1 Z = Z % Z < Z 1 Z < Z & C ; Z 4 ",
"- Z = Z % Z , Z $ Z - Z & Z < Z < Z < Z 1 Z 1 Z % Z , Z % Z - Z & Z ; Z 2 Z = Z < Z 5 Z - Z ; Z - Z 4 Z - Z * Z < Z & Z = Z % Z ",
"Z & Z < Z @ Z < Z < Z : Z 2 C % Z 3 Z < Z - Z , Z , Z 1 Z * Z 1 Z < Z = Z : Z % Z - Z > Z % Z * Z # Z = Z : Z 1 Z 1 Z * Z - Z t ",
"< Z # Z : Z % Z 7 Z 3 Z = Z , Z 2 Z 3 Z 7 Z = Z : Z % Z - Z # Z % Z < Z & Z & Z < Z : Z - Z < Z < Z 7 Z 1 Z $ Z 1 Z - Z 1 Z - Z ",
"Z & Z < Z 3 Z % Z 2 Z 3 C < Z y Z : Z - Z 4 Z & Z < Z = Z - Z - Z % Z % Z & Z % Z = Z - Z - Z 1 Z * Z - Z < Z < Z 1 Z < Z - Z = ",
"% Z 2 Z . C = Z - Z ; Z 3 Z : Z 9 Z - Z : Z : Z 3 Z - Z 5 Z % Z : Z - Z * Z : Z < Z > Z % Z < Z 7 Z : Z ; Z % Z # Z - Z 1 Z : Z ",
"Z 3 Z 1 Z % Z 2 Z . Z * Z - C 1 Z 2 Z . Z & Z 8 Z   Z t Z - Z - Z   Z 3 Z ; Z   Z 4 Z - Z : Z : V . Z 3 Z - Z . Z & Z * Z - Z . ",
", Z = Z   Z 4 Z < Z - Z   Z < Z 2 Z . Z ; Z & Z - Z : Z . Z , Z % Z . Z * Z ; C 2 Z X Z & Z 2 Z . Z 2 Z : Z 3 Z - Z   Z ; Z = Z ",
"B , C * V 8 M % N   N % B 7 C . N : C : M = C * V   B < V   N = C - C 3 C = B   C % Z 1 Z   B < V = C ; C % N   N - V . Z 2 V 8 ",
"- N 8 Z # V $ V   B 2 V   C - C ; B % N % N . V 1 C % N . N ; V 9 Z % B % V   M < M   Z - Z ; C = N ; B   N 1 C = C   N % C - V ",
"C . N : V % C . V 1 N , V : V * V   N ; N   C < V % Z 1 V , N   V = B 4 C   N & V = B - C % C   B < B   C 1 N - N 2 B : B   V < ",
". V 1 C % V   V = n 7 B * V = V . B - M   C 3 B < B = B * M   Z - C ; V   B < V 3 C ; V 1 M . M < N   Z < C % N 2 C < B . Z 1 C ",
"B = B % B & Z & N   C + V   Z % B 1 C 3 N < C   C % B - Z X V % M @ Z - B 7 C   V & B   B % C - Z 1 N = B   M - C 1 C . N 2 N % ",
"7 N % V < V = N . V - Z : C   V - N 6 Z 1 Z : B . B - N   V - C *.b b b $ B   Z 4 V - V . B # N = V 1 B - B X N * V . V & C @ C ",
"V . N @ B   V % V - V k B % N . C 2 Z 7 V . V - C O B > C % C   *.b b b b b b 1 Z 2 N = V   B , B < N . V & N & V : C - C   C - ",
": B . n % Z   Z 1 N < B % B - B . Z - V : N   B - N 3 Z * C ; N *.b b b b b b b b b b V = B . Z * V = B   N * M > C = B , V   N ",
"N 1 C - C . C % B - N . B 7 V % V : V : V X C = N * V X B , C % *.b b b b b b b b b b b b b V = B 1 B X Z 8 Z 2 Z   N # B % Z 4 ",
"- B   V 1 V < C % N . N = V - V . Z % V - B & V 1 N . Z # V @ C *.b b b b b b b b b b b b b b b b b < V < B < B   Z % B $ C . C ",
"C - C   C % Z : V # B $ V   C = C ; V . B = Z $ B < C X B $ B % *.b b b b b b b b b b b b b b b b b b b b , C = B o V > N $ V X ",
"% V - Z . Z ; B % B . Z < B 4 B % N . V : Z 2 B . B % V ; N - N *.b b b b b b b b b b b b b b b b b b b b b X Z , V < C < B 1 C ",
"C % M & C   B - V % N . M = B 3 V - V   B : V % C   C 4 Z # V : *.b b b b b b b b b b b b b b b b b b b b % V   C * Z % M : C : ",
"7 V   C , B : V < B < B . C , V < N . B : Z 1 C : V . B * B - V *.b b b b b b b b b b b b b b b b b 0 C - B < M . B & V 8 Z X Z ",
"B = V   C % V 7 C - Z   B : B , C   Z - Z % C % B : V   V - V < *.b b b b b b b b b b b b b b   C 7 N - M - N = B   Z 2 C 3 C . ",
": B < M   B < V 2 V . V % V 1 B w C 2 B . Z 1 B < C   B k B 3 N *.b b b b b b b b b b C , V 2 Z 1 N   N - V ; C . C k Z % Z , B ",
"B g Z   V u N . B f N h C c C f M . V i V 2 Z   N f N u B f V j *.b b b b b b b B g Z ~ N h M . C r Z g Z . C e B f C e N k Z X ",
"  B u C   C , B w Z t B t M . C i B f B   V , V g Z 9 C t N . C *.b b b b C 2 Z t M w B . Z k C 2 B   V t Z l Z u C t C   B a m ",
"V r B u Z r C t V   V t V t Z   V 3 C , V w Z t C . B t V . V f *.f B h V e B . C f B g C . V h C f C f C a C X V p B   V p V f ",
"r V z B a V f V . V t V   C f V q Z u B u V . V g B a V   V w B *.Z a Z i N . N q B . V z Z q C a V r V . C f B u V X M r N x Z ",
"V   N a C i B . B w B , B d V a C   Z a C . V e B u Z g C f B   *.t Z x C   B r C a B e V i Z   B a N . V e V d V c B y N   B f ",
". B f B d B   Z e V g Z f B u B . V i V   Z d N f V y B t B   Z *.V d B   N t B j V i Z t V   M t N   B i Z u B a N r V . V j C ",
"N g M r V w V f B . B g B   N j C f C g C j N   B f C s B . V f *.r B h C t Z . N f Z   V f Z g C j C a B   C r V c Z . M a V e ",
"J Z r V d B f C   Z a C r Z   N r B i V g V r Z . N f V . C h B *.V a B u N   B d Z r V   V r C d V d M u M . Z w B . Z i V r Z ",
"Z K V K B   B h B e C K B . B d N G B   Z f C j B D V S N   Z K *.j V   M F V P C J Z . N f N F C . V J C K M D M s V   Z z V P ",
"I N   M L B L V   Z U M E N K V L C   B Y B L V   V _ B I C R N *.C E B ( B   B G B H V W Z Q C   C L N G M . Z K Z J N F C . V ",
"B F Z P C . M P C G N . Z ) B ! B W V T C . V P Z U B . V I V G *.R Z . B L C S M   C $.V J B H B Q N   Z P Z Q B . N L C L B { ",
"L C . C ! V H N R V . Z L V E B   V F m L N ! C P Z   C P Z L V *.V E V U B P m   B ) C J C . m H V H V j V F Z . C L M H C   C ",
"B W V   B P Z L B F N H M . B E V R N . N I V I C R B . C I B K *.. Z / V P m L V W N . C j C L N   B U V H Z _ C   B U B L V   ",
"L B E Z   N W B D V   Z K B E B R V . V L Z ^ Z   V U B P N } B *.V   Z R M J B . M ^ C R M I N . N Q Z P Z   C G N G M ) C } Z ",
"B D B U V   V P Z P B   n Q N U Z L N . C I B K N . V E C P B R *.H N   C F C K N   V ` N U C ) V   C D N A B . V ( B E B H M F ",
"R B   M U M { N T V E N   B [ M U B . Z U C U C ` C   N R C Q V *.N G C T V E B R Z . V R B F B   Z H B H B F V   B R Z Q C   V ",
"B . V R B F B W B H B   C ( B . C . B U Z Y V P N . C  .V U Z   *.L B ' m T B ` C . C } M   B . m R Z  .C W V   B Y B { B   C Q ",
"L B W B ^ Z . V W N U B . B Q Z } C T M   B   C $.Z X V H B L N *.N } Z   B Y N ' B . Z E Z Q B G B . N   B  .Z . C L B { N T N ",
"B I C   C ( V . B . B T V E C W N   V T B Y V   C               *.              M R V Q C P N . V ' V Q C . V _ V R B [ V G C   ",
"  C W C X M U N Y N D N Q Z . B L M F N           v v v v v v v *.v v v v v v v           C L Z { B   N Q V Q C W C . C   V Q Z ",
"M   V F V T C P C . C [ B U V . Z       v v v v v v             *.            v v v v v v       B H B L B T Z . B ) N . B   M L ",
"R N W B U M   V   C } C   V       v v v v                       *.                      v v v v       Z . C R C ` N . M } Z W Z ",
"V   V I B W Z . N } Z T B     v v v                             *.                            v v v     Z   V Y N $.B Q V   B | ",
"  C  .M T V   B Q N F B                                         *.                                        B [ V Q V $.C   N T Z ",
"C } C / N R B . N R C                                           *.                                          V L V   B L V ` V $.",
"  B Y m L B R V R C                                             *.                                            V E C I V . m I Z ",
"N U V { C . N I C T                                             *.                                             .B Q N . Z { V T ",
" .C   Z ) C T V . N                                                                                           B R N X.B { B   C ",
"B O.V U C X.Z   B Y B                                                                                       Z W B   M ' C  .N R ",
"  N Q V W V ' V W C . M                                                                                   C | B   V Q C   C } V ",
"N ' B   C T Z { B ' N X.V                                                                               B o.B L B { Z   V { N   ",
"T V T B . V I B . B { V T M                                                                           B U B   N Y C X.N | B { V ",
"N Q V . m Y B [ M . C +.B T N Y M                                             .                 C   V { N [ Z   N | V ' V | M . ",
"[ C T N   M Q B  .M { C   B { B W V   V                                                   B { B . B X.N { m [ B T B   M { M Y M ",
"C   Z } M ' V T B { M   V | B I B   V { B ' C  .C                               C . B  .C T N   M { B | V U M   N Y M ' V   B { ",
"[ V { M { V   V ' V ] N   N ' C @.Z &.N   N +.N | C   N | C X.N [ B { C   N { B ` C   N | C { V ` N   M O.V ' V   C { C { B ..C ",
"V X.C   C { B O.m . B [ C { V +.V   M [ B { B   C  .V { B { M [ M   C %.N | B   N { V ..V Q N   V ..N @.V   V [ M O.N  .V O.V   ",
"X.V [ Z   C ' N | B @.N { V   N @.C X.V   V } C { V +.M   N &.B R N . N  .V +.B } B ' Z . B [ M #.B   B | B | V o.C   B W B W B ",
"B   B &.B [ B ' N   B X.C o.V   M | B O.N [ N ..B   B  .B ` B   V ..V { C | B   N ` B #.N . B @.N ' B @.B #.B   N O.N [ C . M X.",
"[ Z ' M } V   N [ M } V   N | B X.B o.V } V   C X.B X.B   C ` m ..V [ V   M X.C  .M . B [ B ' V ' B Q C   N [ B [ V   N  .V ` m "
};
