/* XPM */
static char *result[] = {
/* columns rows colors chars-per-pixel */
"64 64 103 2 ",
"   c #000000",
".  c #000A00",
"X  c #001300",
"o  c #001800",
"O  c #004C3F",
"+  c #00543E",
"@  c #004747",
"#  c #004C45",
"$  c #00444C",
"%  c #004C4C",
"&  c #005345",
"*  c #005D44",
"=  c #00534C",
"-  c #005A4C",
";  c #004553",
":  c #004C53",
">  c #00425D",
",  c #004C5B",
"<  c #005353",
"1  c #005B53",
"2  c #00545B",
"3  c #005A5A",
"4  c #006C42",
"5  c #00634D",
"6  c #006B4D",
"7  c #00704E",
"8  c #006253",
"9  c #006A54",
"0  c #00635D",
"q  c #00695A",
"w  c #004567",
"e  c #004B63",
"r  c #00456A",
"t  c #004C6B",
"y  c #005464",
"u  c #005A61",
"i  c #00546C",
"p  c #005B6D",
"a  c #004372",
"s  c #004D73",
"d  c #00427A",
"f  c #004B7B",
"g  c #005273",
"h  c #005B74",
"j  c #00537B",
"k  c #005B7C",
"l  c #006262",
"z  c #00666C",
"x  c #006174",
"c  c #006970",
"v  c #00627B",
"b  c gray50",
"n  c #00C400",
"m  c #00CC00",
"M  c #00D400",
"N  c #00DC00",
"B  c #00E400",
"V  c #00EB00",
"C  c #00F300",
"Z  c #00FE00",
"A  c #003E8A",
"S  c #003C92",
"D  c #004583",
"F  c #004B84",
"G  c #00448B",
"H  c #004C8C",
"J  c #005484",
"K  c #005A82",
"L  c #00538B",
"P  c #005A8B",
"I  c #004595",
"U  c #004C94",
"Y  c #00469C",
"T  c #004C9C",
"R  c #005394",
"E  c #005A92",
"W  c #00539C",
"Q  c #005A9B",
"!  c #006485",
"~  c #006985",
"^  c #00618A",
"/  c #006494",
"(  c #006891",
")  c #00639B",
"_  c #006999",
"`  c #0047A0",
"'  c #004CA3",
"]  c #004CAC",
"[  c #0053A4",
"{  c #005BA3",
"}  c #0052AC",
"|  c #005BAA",
" . c #0045B3",
".. c #004CB3",
"X. c #004BBB",
"o. c #0052B3",
"O. c #005BB5",
"+. c #0052BC",
"@. c #0058BB",
"#. c #0064A3",
"$. c #0068A4",
"%. c #0060B0",
"&. c #0054C2",
/* pixels */
"Z < C & Z % Z 3 Z : Z 2 Z & Z - Z * Z & Z & Z 2 Z 2 Z # Z - Z : Z = Z * Z = Z - Z : Z + Z - Z - Z = Z % Z < Z 1 Z < Z & C ; Z 5 ",
"- Z = Z # Z e Z $ Z - Z & Z < Z < Z < Z < Z 1 Z % Z , Z : Z - Z & Z : Z y Z = Z < Z 6 Z = Z : Z = Z 5 Z - Z * Z 2 Z & Z = Z % Z ",
"Z & Z < Z $ Z 2 Z < Z % Z 3 C = Z 3 Z < Z - Z , Z , Z 3 Z * Z < Z < Z & Z < Z % Z = Z w Z = Z - Z # Z = Z < Z 1 Z 1 Z * Z = Z u ",
"< Z # Z : Z # Z 8 Z 3 Z = Z , C 2 Z 3 Z 8 Z = Z : Z % Z * Z # Z % Z 2 Z # Z & Z < Z % Z = Z < Z < Z 8 Z < Z $ Z - Z - Z 1 Z 1 Z ",
"Z & Z = Z 3 Z # Z 2 Z 3 C < Z u Z : Z - Z 5 Z & Z 2 Z = Z - Z - Z % Z % Z & Z % Z = Z * Z - Z 1 Z 5 Z = Z = Z < Z < Z < Z & Z < ",
"# Z y Z . C = Z - Z : Z 3 Z : Z 0 Z - Z : Z : Z 1 Z - Z 6 Z % Z < Z = Z * Z : Z 2 Z > Z % Z 2 Z 1 Z : Z , Z % Z & Z * Z 1 Z < Z ",
"Z 3 Z 1 Z % Z 2 C . Z * Z - C < Z 2 Z . Z & Z 9 Z   Z u Z = Z = Z   Z 3 Z ; Z   Z 5 Z & C < Z : C . Z 3 Z - Z   Z & Z - Z - Z . ",
", Z = Z   Z 8 Z < Z - Z   Z 2 Z 2 Z . Z ; Z & Z - Z : Z . Z , Z % Z X Z & Z : C 2 Z X Z - Z 2 Z   Z 2 Z % Z 3 Z = Z   Z : Z = Z ",
"B , C * V 9 M = N   N % B 8 C . N : C : M = Z * V   V < V   N = C = C 3 C = B   C % Z 1 Z   B < V = V ; C % B   N * V . C 3 V 8 ",
"- N 9 Z # V $ V   B 2 V   C - C ; B % N % N   V 1 C # B . N : V 0 Z % B % V   M < M   C - Z : V = N ; V   N < C < C   N = C - V ",
"V . N : V % C   V 1 N , V < V * V   N : N   C < V % C - V , N   B < V 5 C   N = V % V - C % C   B < V   C 1 N < B 2 B ; B   V < ",
". C 1 C % V   V = n 8 B - V = V . N - M   C 1 B < B = B & M   Z & C ; V   B : C 1 C : V < N . M < N   C 3 C # B 2 C < B . Z 1 C ",
"B = V % B & C - N   C + V   C = B 1 C 3 B 2 C   C % V = C o V % N # Z - B 8 C   V & B   B % C - C 1 B % B   M = C 1 Z   N 3 M = ",
"1 N # V < V = B . C = Z $ C   C - N 7 Z - C : B . B = N   V - C : V : N ; B   C 5 V - V . B @ N - V 1 B - B X N * C   V & C $ C ",
"V   N $ B   C = V - V l B % N . C , Z 8 C . V - C O B , C = C   N = C   C # C 5 Z 2 N = V   B , B 2 B . V & N & V : C - C   C - ",
": B . n = C   C 1 N < B % B - B . Z 5 V ; N   V = N 0 C & C : N   B % C . C 1 C # B < V = B . Z * V % B   N * m , C = B , V   N ",
"N 8 C - C . C = V = B . B 8 C % V : V : V X C = N * V X V , C # C 1 V   V , N # Z   V - V - V = V - B X Z 8 Z 2 C   M # B = Z 8 ",
"- B   V 1 V 2 V $ N   B = V = V . Z % C - V & V = B . Z # V $ V   V 0 B ; C : V . N = V 5 Z X C % C < V < B 2 V   Z # V % V   C ",
"C - C . C = Z % V # B $ V   C = C : B   B = Z $ B 2 V X N $ V = Z X Z < C < Z < C = C   C 5 Z < V X N ; C 2 C = B o V > N $ C X ",
"# V 1 C   C ; B % B . Z < B 5 B % N   C < Z 2 N . B % C : M = N & V   C < M % C   Z 8 C $ C < C   V & N 6 Z X Z 2 V < V < B 1 C ",
"C % N & C   B = V % N X M = B 2 V = V   B : V # C   C 5 Z # B : V : C X C < Z 1 C X M : C < V 4 V   V < Z % V   V * Z % M : C : ",
"1 V   V 2 V : C = B < N   V 2 V < N . B : Z 3 C : V . B * B - V   B = V # V % C < C . B + V < V . Z q C - B < N . B - V 9 Z X Z ",
"V % V   C = V 8 C 8 Z   V : B y C   Z - C % V = B : V   V - C < M   B & B 3 V 2 C   B < B : N   C 8 N = M = N = B   C 3 C 3 C . ",
": B < M   B : V 3 V   V % V < V y C 3 V . Z < B < V   V l B 3 N , B . V e V 3 C . C 3 C , V 2 Z 1 N   N - V ; C X C l Z % Z , B ",
"B x Z   V i N   B g N j V v C i M . V p B 2 Z   N g N i B g V k C   V w V   Z j B h C ~ N j M . V i Z h C X C t N g V e M l C o ",
"  B i C   C , B y Z u B u M . C p B h B   V 2 V h Z 0 C y B . C , M . Z u C 2 Z u M y B . Z l C 2 B   V u C z C i C i C   B t M ",
"V i B i C i C u V   B u V y C   V 3 V , V e Z y C X B y V   V g Z h B j V r V   C g B h C   V j C h C g C h C X V s B   V a C g ",
"t B x B s V g V . V i V   V h V r Z t B i V . C h B g B   V e B i C s Z p N . B r V   V x Z e C s B t V . V h N i V . N t N c Z ",
"V   N s C p V . B e B , B f V s C   C g C . V r B i Z h C g B   C y C c V   B t C s B t V p Z   B s N . V t B f B v B u N   B g ",
"  B g B f B   C t B h Z g B h B . V p V   Z F N h B u B y B   Z s V s B   B y B k V p C y V   N y N   B z C i B g N t C   C k C ",
"N h N t V e V s B X B h B   N h C i C h C h B   B s C d B X V g m t B j C i Z   B g C   V g C h C k C s V   C i V v Z . M f V t ",
"J Z t V f B g C   C s C t Z   N t B h V h V t C . N g V   C j B h V s V i N   B f Z t C   V t C f V f M i M . C e B . C p V i C ",
"Z P C K B   B j B i C K B . B f M G B   Z g C k B D V S N   Z K C k V   M F C P C J Z   N g N F C   C J C K M J M d C   Z x V P ",
"U N   m L B L V   C R M E N k V L C   B Y B R V   V _ V U C R N   C E V ( N   B G B H V W Z Q C   C L N H M . C K Z J N F V   V ",
"N D Z ^ C   N L C G N . Z ) B ^ B W V W C . V P C R V   V I V G Z R Z   B L V S M   C $.V J V H B W N   C P Z Q B   N L C L V { ",
"L C   C ~ C H N R V . C L V E B   V F m L N ! C P Z   C P C H C   V / V U B P M   B ) C J C   M H C H V k V F Z . C P M H C   C ",
"B Q V   B P C L B F N L M . B E C R N . M Y V G C R B . V U B J B   C / V P M L V Q N . C k C L N   B U V H Z _ C   B U B L V   ",
"P B E C   N Q B D B   C K B E V R V . V L Z ! Z   V U B P N { B E C   Z U M J N   N ^ V Q m U N   N Q Z P Z   C G N G N ) C { C ",
"B D B U V   V P Z P B   n Q N U Z P N   C I B K B   V E C ^ B R M H N   C J C K N   V T N U C ) V   C D N A B . V / B E B F M L ",
"E B   M U M [ N U V Q B   B ] N U B . Z R C U C ` C   N R V Q V X N A C T B E V Q C   V R B F B   Z L B H B F V   V Q C Q C   V ",
"B . V R B L N Q B F V   C / B   C . B U Z T V P M . C { V T Z   B L B ' m T B ` C . C { M   B . m R Z | C W V   B Y B T B   C W ",
"L B Q B ^ C . B T N T B . B Q Z { C W m   B   V $.Z X C H B L N T B { Z   B Y N ' B . Z / C Q B G B . N   B %.C . V L B [ N T B ",
"N I C   C ( V . B . B T V E C W N   V T N T V   C                               M R V Q C P N   V ' C Q C   C _ C R B } V G C   ",
"  C W C X M L N T M D B Q Z   V H N F N           b b b b b b b b b b b b b b b           C P Z [ B   N Q C Q C T C . C   V Q Z ",
"M   B H V W C P C . V ] B U C   Z       b b b b b b                           b b b b b b       B H B L V T Z . V ) B . V   N L ",
"R N R B I M   V   C { C   V       b b b b                                               b b b b       Z . C R V ` N   M { C Q C ",
"V   V U V T Z . N Q C W B     b b b                                                           b b b     C   V Y N #.B Q V   N } ",
"  C | M T V   B Q N L B                                                                                   B ] V Q V #.C   N T Z ",
"C { V / N R N   N E C                                                                                       V L V   B L V ` C #.",
"  B T m L B E V R C                                                                                           V E C I V . m U C ",
"N U V [ C . N U C T                                                                                           | B Q N . Z [ V W ",
"| Z   C ) C T V . N                                                                                           B R N ..N [ V   V ",
"B o.V U C ..C   V Y B                                                                                       Z Q V   N ' C | M R ",
"  N Q V W V ' V W C   M                                                                                   C } B   V W C   C { V ",
"N ' B   C T C [ B ' N ..V                                                                               B X.B L B [ C   V [ N   ",
"T V T B . V R B   B [ V T M                                                                           B U B   N I C ..N | B [ V ",
"N Q V . m T B ] N . C O.B T M T M                                                               C   V [ N } C   M | V ' V } M   ",
"] C T N   M Q B { N } C   B [ B Q V   V                                                   B [ B   N ..B [ m ] B W N   M ' N Y N ",
"C   C #.M ' V T B [ m   V } B I V   V W B ' C | C                               C   B | C T N   N [ B } C U M   N Y M ' B   B [ ",
"] V [ M [ V   V ' V ] N   N ' C @.C &.N   N O.N } C   N } C ..N ] B [ C   N ' V ` C   N | V [ V ` N   M o.B ' V   C [ C [ B ..C ",
"V ..C   C [ B o.M   B ] C [ V O.V   M ] B [ B   C | V Q B [ M o.M   V %.B } B   M [ V  .V Q N   C  .N X.V   V ] M o.N | V o.V   ",
"..V ] Z   C ' N | B +.N [ V   B &.C ..V   V | C [ V O.m   N X.B R B . N } C O.B { B ' Z   B ..M @.B   B } B } V X.C   B Q B Q B ",
"B   B &.B ] V ' M   B ..V X.B   M } B o.N ' N  .B   B | B ` N   V  .V [ C } B   N ` B @.N . B o.N ' V +.V @.B   N o.N ] C . m ..",
"] Z ' M [ V   N ] M [ C   B } B ..B X.V { V   C ..B ..B   C ' m  .V ] V   M ..C | N . B } B ] V T B [ C   M ] B ] V   N | V ` m "
};
