/* XPM */
static char *result[] = {
/* columns rows colors chars-per-pixel */
"64 64 105 2 ",
"   c #000100",
".  c #000A00",
"X  c #001300",
"o  c #001800",
"O  c #004C3F",
"+  c #00543E",
"@  c #004747",
"#  c #004C45",
"$  c #00444C",
"%  c #004C4C",
"&  c #005345",
"*  c #005C44",
"=  c #00534C",
"-  c #005A4C",
";  c #004553",
":  c #004C53",
">  c #00425D",
",  c #004C5B",
"<  c #005353",
"1  c #005B53",
"2  c #00545B",
"3  c #005A5A",
"4  c #006041",
"5  c #006C42",
"6  c #00634C",
"7  c #006B4D",
"8  c #00704E",
"9  c #006253",
"0  c #006A54",
"q  c #00625D",
"w  c #00695A",
"e  c #004567",
"r  c #004B63",
"t  c #00456B",
"y  c #004C6B",
"u  c #005364",
"i  c #005B61",
"p  c #00536C",
"a  c #005B6D",
"s  c #004372",
"d  c #004D72",
"f  c #00447A",
"g  c #004B7B",
"h  c #005273",
"j  c #005C74",
"k  c #00537B",
"l  c #005B7B",
"z  c #006262",
"x  c #00666C",
"c  c #006174",
"v  c #006A70",
"b  c #00627B",
"n  c #F83030",
"m  c #00C400",
"M  c #00CC00",
"N  c #00D400",
"B  c #00DC00",
"V  c #00E400",
"C  c #00EB00",
"Z  c #00F300",
"A  c #00FE00",
"S  c #003D88",
"D  c #003C91",
"F  c #004681",
"G  c #004B85",
"H  c #00458A",
"J  c #004C8C",
"K  c #005485",
"L  c #005A83",
"P  c #00538C",
"I  c #005A8C",
"U  c #004594",
"Y  c #004C94",
"T  c #00469C",
"R  c #004C9B",
"E  c #005394",
"W  c #005B93",
"Q  c #00539C",
"!  c #005B9B",
"~  c #006385",
"^  c #006985",
"/  c #00618C",
"(  c #006494",
")  c #006891",
"_  c #00629C",
"`  c #006999",
"'  c #0044A2",
"]  c #004CA3",
"[  c #0043AC",
"{  c #004CAC",
"}  c #0053A4",
"|  c #005AA3",
" . c #0053AC",
".. c #005BAA",
"X. c #0044B2",
"o. c #004CB3",
"O. c #004BBB",
"+. c #0053B3",
"@. c #005BB5",
"#. c #0052BC",
"$. c #005ABA",
"%. c #0063A3",
"&. c #0060B2",
"*. c #0054C2",
"=. c #F8F8D0",
/* pixels */
"A < Z & A % A 3 A : A 2 A & A - A * A & A & A < A 2 A % A - A : A - A - A = A - A : A & A - A 1 A = A % A < A 1 A < A & Z ; A 6 ",
"- A = A % A , A $ A - A & A < A < A < A < A 1 A % A , A : A - A & A : A 2 A = A < A 7 A = A : A - A 6 A - A * A 2 A & A = A % A ",
"A & A < A @ A < A < A : A 3 Z = A 3 A < A - A , A , A 1 A * A < A < A = A < A % A - A e A = A * A # Z - A < A 1 A 1 A * A = A i ",
"< A # A : A % A 9 A 3 A = A , Z 2 A 3 A 9 A = A : A % A * A # A % A < A # A & A < A % A = A = A < A 9 A < A $ A - A - A 1 A 1 A ",
"A & A < A 3 A % A 2 A 3 Z < A i A : A - A 6 A & A < A = A - A - A % A % A & A % A = A * A * A - A 6 A = A = A < A < A < A & A < ",
"% A 2 A . Z = A - A : A 3 A : A q A - A : A : A 3 A - A 7 A % A : A - A * A : A < A > A % A 2 A 1 A : A , A % A & A - A 1 A < A ",
"A 3 A 1 A % A 2 Z . A * A - Z < A 2 A . A & A 0 A   A u A = A = A   A 3 A ; A   A 6 Z - Z < A : Z . A 3 A - A   A & A * A - A . ",
", A = A   A 6 A < A - A   A < A 2 A . A ; A & A - A : A . A , A % A X A & A : Z 2 A o A * A 2 A   A 2 A % A 3 A = A   A : A = A ",
"V , Z * C 0 N % B   B % V 9 Z . B : Z : N = A * C   C < C   B = Z = Z 1 Z - V   Z % A 1 A   V < C = C : Z % V   B * C . Z 2 C 0 ",
"- B 0 A # C @ C   V 2 C   Z - Z ; V % B % B   C 1 Z % V . B : C q A : V $ C   N < N   Z 6 Z : C = B ; C   B < Z < Z   B - Z - C ",
"C . B : C % Z . C 1 B , Z : C * C   B : B   Z < C % Z - C , B   C = C 6 Z   B - C % C - Z = Z   V < V   Z 1 B = V 2 V ; C   C < ",
". Z 1 Z % C   C = m 9 V - C = C . B - N   Z 1 V < V = V & N   A - Z ; C   V : Z 3 Z : C < N . N < B   Z 3 Z % V 2 Z < V . Z 1 Z ",
"V = C % V & Z * B   Z + C   Z = V 1 Z 3 V < Z   Z % C = Z o C % B @ A - V 9 Z   C & V   V : Z - Z 1 V % V   N = Z 1 Z   B 2 B % ",
"1 B % C < C = B . C - A $ Z   Z - B 8 A 1 Z : V . V = B   C - Z : V < B ; V   Z 6 C - C . V % B - C 1 V - V X B * Z . C & Z @ Z ",
"C   B @ V   Z = C - C z V % B . Z , A 9 Z . C - Z O V , Z % Z   B % Z   Z % Z 6 A 3 B = C   V : V < V . C & B & C : Z - Z   Z - ",
": V . m = Z   Z 1 B < V % V - V . A 6 C ; B   V - B q Z * Z ; B   V % Z . Z - Z # B = C = V . A * C % V   B * M , Z = V , C   B ",
"B 9 Z - Z . Z % C < B . V 9 Z % C : C : C o Z = B 4 C X C , Z # Z 1 C   C , B % Z   C * Z = C % C 1 V X A 9 A 2 Z   N # V = A 6 ",
"- V   C 1 C < Z @ B   V - C - C . A % Z - V & C = B . A # C       C 3 V ; Z % C X V = C 6 A X A % Z < C < V < C   A % C % C   Z ",
"Z - Z . Z = A : C # V $ V   Z % Z : V   C = A $ V 3 C X     n n n     < Z < A < Z < Z   Z 6 A < C X B ; Z 2 Z = V o C > B @ Z X ",
"% C - Z   Z ; V % V . A < C 6 V % B   Z : Z 2 V   C %   n n n n n n n   < N % Z   A 9 C $ Z < Z   C & B 8 Z o A 2 C < C : V 3 Z ",
"Z % B & Z   V = C % B X N = V 3 C - C   V : C % Z   Z   n n n n n n n n   : A 1 C . N : Z < C 5 C   C < A % C   C * A % B : Z : ",
"1 C   C 2 C : Z = V < B   C 2 C < B . V : A 1 Z : C .               n n n   % Z < A . V + C < C . A w Z - V < B . V * C 0 A o A ",
"C % C   Z = C 9 Z 9 A   C : V 2 Z   A - Z % Z % V : C           =.      n   C < Z   V < V : B   Z 9 B - N = B = V   Z 3 Z 3 C . ",
": V < N   V : C 3 C   C % C < V r Z 2 C X A < V < C     =.    =.=.  =.    n   Z . Z 3 Z , C 2 A 1 B   N - C ; Z X Z z A % A , V ",
"V c A   C p B   V h B k C b Z p N   C a V u A   B     =.  =.    =.=.          k V j Z ^ B k N . Z p Z j Z X Z y B k Z r N z Z o ",
"  V p Z   Z , V u A i V i N . Z x V h V   C < C j     =.=.=.  =.  =.  =.  C 2 A u B u V . A z Z < V   C u Z x Z p Z p Z   V y N ",
"C p V p A y Z u C   V u C u Z   C 3 Z , C r Z u Z X     =.=.=.=.    =.=.=.  C   Z h V j Z   C k Z h Z h Z h Z o C s V   C s C h ",
"y V c V d C h C . C u C   Z l C e A p V p C X Z j B         =.=.      =.=.  . V e V . C c A r Z d C y C X Z j B p C X N y B v A ",
"C   B d Z a C . V y V , V g C d Z   Z h Z . C t V     n   =.=.=.=.          V y Z d V y C a A   V d B . C y V g C b V i B   V h ",
"  V h V g V   Z r C j A h V p V . C j C   A g B   n n   n     =.=.=.  V   V u V l C a Z u C   B u B   V x Z p V d B y Z   Z l Z ",
"B j B y C r C h V X V j V   B l Z h Z j Z l V   n n n     n n       C k Z p Z . B h A   C h Z j Z l Z s C   Z y C b A . N d C y ",
"K A y C g V h Z   Z d Z y A   B y V a C j C   n n n   n n n     j C s C p B   V g A y C   C y Z k C g B a N . Z r V . Z j C p Z ",
"A L Z I V   V k V y Z L V . V g N H V   A h     n n   n n n   n   l C   N G C I Z K A   B h V G Z   Z K Z L N K N f Z   A c C L ",
"Y B   M P V P C   Z E N W B L C P Z   V T   =.=.  n   n n n       Z W C ) V   V J V J C E A ! Z   Z G B J N . Z L A K B G C   C ",
"B G A ~ Z   B P Z H B . A _ V ~ V Q C Q Z   =.=.=.            =.=.  Z   V P C D N   Z %.C K V U V Q B   Z I A ! V   B P Z P C | ",
"G Z   Z ^ Z J B E C . Z I C W V   C G M P   =.=.=.=.=.  =.=.=.  =.  ( C Y V I N   V %.Z K Z . N J Z Y C l C G A . Z I N Y Z   Z ",
"V Q C   V I Z P C G B J N . V W Z E B   B   =.  =.=.=.  =.=.=.=.  n   ) C I M P C ! B   Z l Z P V   V Y C J A ` Z   V Y V P C   ",
"W V W Z   B Q C F V   Z L C W V E C . C P A   =.  =.=.=.    =.=.=.    Z E N K B   N ~ Z W M Y B   B ! A I A   Z H B H N ( Z | Z ",
"B G V J C   C I A I V   m Q B Y A I V   Z U   =.  =.=.=.=.    =.=.=.    Z G Z L V   C ' B Y Z _ C   Z F B S V . C ` V W V G N P ",
"W V   N Y N } B Y C ! V   V { B Y V . A E C Y     =.=.=.    !     =.    R C W C E A   Z Y V G V   A J V J V G C   V W A Q Z   C ",
"V . C E V P V Q V G V   Z ) V   Z . V Y A R C   =.=.=.=.=.  A   V   V     R V ] C . Z | N   V . M E A | Z Q C   V T V R C   Z Q ",
"I V Q V / Z   C Q B R V . V ! A | Z Q M   V     =.=.=.    V P B R V | A     T B       A ( Z ! V H V . B   V %.Z . C P V ] B R V ",
"B U Z   Z ) Z . V . V R C W Z Q B   C R B R   =.=.    =.n   B R V   Z / B       n =.n   Z I B   V ] Z ! Z   C ` Z E C { C H Z   ",
"  Z Q Z X N P B T B F B ! A   C J B G B .         n n n n             A Y N             . Z I A ] C   B | Z ! Z R Z . Z   C ! A ",
"N   V J C Q Z I Z X C { V R Z   A / Z Q                                               R C   A | V J V I C ] A . C _ V   V   B I ",
"E B E V U N   C   Z | Z   C H Z X.V Q B I                           Q C X Z   V | Z . C Q V } C E Z ! A . Z E Z ' B . N | Z ! Z ",
"C   C Y C R A . B | Z R V R C U V   C | V   V   V U C W C ! Z   C E M E Z X V / C } N { V Y V . Z } B   Z   C T B %.V ! C   B  .",
"  Z ..N R C   V ! B K V J Z . B   C ! C   Z P V ' V Q B W C   Z Y B T B   Z W Z } N R V   V . Z ! Z   V Y V { C W C %.Z   B R A ",
"C | C ) B Q V   B I Z E V   C Q V Q N R C P V   C I V . N U N E B } C E V   C Y V E C   V ! C Y B P V E Z   Z E C   V P C ' Z %.",
"  C ' M P V W C Q C   Z E Z   V ! C Y V { Z ( N   V | Z J V . B ] N %.C ] A R B . V P V   A E V R C J Z _ Z   C W Z U C . M Y A ",
"B Y Z ] Z . B Y Z R B U Z P B   V J V   Z { Z | C ..V +.V   B E V ] V   B ] N o.C R Z ] V . C ! C   V Q V o.Z ..V ! B . A } V Q ",
"..A   Z ( Z ' C . B X.C R V P C ' C   N R Z   B ] Z Y B  .V R V   B | Z } A   N } B ..B | N } N   C @.Z   V &.V E B o.B } C   C ",
"V +.C Y Z o.Z   V T B   C R A ] V { B Q B   V } C ..B   V ] B E C R C  .B   B ] V   C } B Q N W B  .N   N Q A Q V   B ] Z ..N E ",
"  B ! C Q C ] C Q Z . N | C | B   V R V P V | V } Z   N  .N   V  .Z R B R Z { V   V } C R C   C R V %.V R Z  .V   Z Q Z   Z | C ",
"B ] V   Z R A } V ] B o.C . N R Z Q V   V ! Z T V } C ] C   C } Z   V T B ..V [ V Q B   C | V ] N   B ' V O.V P V } Z   C } B   ",
"R C R V . C Y V   V | V Q N  .B } C   C ' V T V   V T C ] V } V R B   V Q V   V Y V Y V ] V [ N   B | V Y V   B T Z o.B ..V } C ",
"B ! V . M R V { B . Z @.C Q N R N  .Z . C | V | C   A } V ] C ..B   V { V X.V . V R Z ] V R V ] Z   C } B  .Z   N ..C ] C  .N   ",
" .Z R V   N ! V | B  .Z   B ] V Q C   C } B R C  .V W Z   V ' N W V   Z Q Z ' B R Z   C o.V | V   B o.V } M ] V Q B   N ] B T B ",
"Z   Z | N ' C R V } N   C  .V U C   C Q V ] Z ..Z   B R B { M   C _ V Q B R V { Z   V ..Z R B   B  .V  .Z Y N   B T N ] V   V } ",
"{ C | N | C   C ] C [ B   V ] Z #.Z *.B   B @.B ..Z   B  .Z o.B { V } Z   B ] C ] Z   B  .Z } C T B   N +.V ] V   Z } Z  .V o.Z ",
"C o.Z   Z | B +.N   V { Z Q C +.C   M { V } V   C ..C | V } N +.N   Z @.V  .V   B } V [ C ! B   Z X.B O.V   C o.B +.B ..C  .C   ",
"o.C { A   Z ] B  .V #.B  .C   V *.Z o.Z   V | Z } C +.N   B O.V E B . V  .C @.V | V } A   V o.N $.V   V  .V ..C O.Z   V Q C Q V ",
"V   V *.V { V ] B   V o.Z o.C   N  .V +.B  .B o.V   V ..B ] V   C X.C } Z  .C   B ] V $.B . V +.B ] C #.C $.V   N +.B { Z   M +.",
"{ A ] N | C   B { N | C   B +.V o.V O.C | C   C o.C o.V   Z ] M X.C { V   N o.Z ..N . V  .V { C R B | Z   N { V { C   B ..C ] M "
};
