/* XPM */
static char *result[] = {
/* columns rows colors chars-per-pixel */
"64 64 80 1 ",
"  c #010201",
". c #000A00",
"X c #001200",
"o c #181400",
"O c #2C1800",
"+ c #002C00",
"@ c #3C2404",
"# c #503008",
"$ c #0C4004",
"% c #244C00",
"& c #285800",
"* c #306404",
"= c #00543F",
"- c #684014",
"; c #004647",
": c #004C45",
"> c #00444B",
", c #004C4C",
"< c #005345",
"1 c #005C44",
"2 c #00534C",
"3 c #005A4B",
"4 c #004453",
"5 c #004C53",
"6 c #00445C",
"7 c #004C5A",
"8 c #005353",
"9 c #005A52",
"0 c #00535B",
"q c #005A5A",
"w c #00644D",
"e c #00684C",
"r c #006353",
"t c #006A54",
"y c #00615C",
"u c #004E6F",
"i c #005664",
"p c #005874",
"a c #3C8008",
"s c #5C9414",
"d c #00C300",
"f c #00CD00",
"g c #00D500",
"h c #00DC00",
"j c #00E400",
"k c #00EB00",
"l c #00F300",
"z c #00FE00",
"x c #004B8C",
"c c #005885",
"v c #00538C",
"b c #00588E",
"n c #004494",
"m c #004B94",
"M c #00469D",
"N c #004C9C",
"B c #005494",
"V c #005A94",
"C c #00539C",
"Z c #005B9C",
"A c #006396",
"S c #00629F",
"D c #0046A2",
"F c #004CA4",
"G c #0044AC",
"H c #004CAC",
"J c #0053A4",
"K c #005BA3",
"L c #0052AC",
"P c #005AAB",
"I c #0045B2",
"U c #004CB3",
"Y c #004BBA",
"T c #0052B3",
"R c #0059B4",
"E c #0052BC",
"W c #005ABA",
"Q c #0062A3",
"! c #0060B3",
"~ c #0052C2",
/* pixels */
"z8l<z,zqz5z0z<z3zwz<z<z8zqz;z3z5z3z1z8z3z5z=z3z2z2z,z8z3z0z<l4zw",
"3z2z,z7z>z3z<z0z$z8z8z9z,z7z,z3z<z5z0z2z5zez2z7z$zwz<z3z0z<z2z,z",
"z<z8z>z8z0z5z0l+*tz0z3z7z7z9z1z8z5z2z5z,z3z6z2z$a:l2z0z3z9z1z2zi",
"5z:z5z,zrz8z2z5ssz9zrz2z5z:z3z:z,z8z<z<z8z5z2z2aszrz8z>z3z3z9z3z",
"z<z8zqz,z0z9l8+ss0z3zwz<z0z2z3z3z,z5z<z,z2z3z3$aswz2z2z0z9z0z3z2",
",z0z.l2z3z7zqz+ss$3z5z5z9z3zez,z5z3z3z5z0z6z,z$ss+8z7z,z:z1z9z0l",
"zqz9z,z0l.z$$$aasa$oz<ztz ziz2z2z z8l4z zwz$$$aasa$rz2z.z<z<z3z.",
"7z2z z3z8z3z$sasaaa+4z<z3z5z.z7z,zXz1z5l0zXz$sass*a$,zqz2z z4z3z",
"j7l3ktg2h +$asassasa$$z3k k8k h2l2l9l2j l,+%asassasa$+h h3k.l0lr",
"<jtz:k>j j5ssaasasaa*j.k9l,j.h5kyz5j,k g8g asaasasaash9l2l h2l3k",
"l.h5k,l.kr**asasasas$+l8k,l3k5h k2kwl h<k2**asasasas++h9j0j5j k8",
".k9l,k $+$%$s*$s*ss$+&$$9j8j<g z2l4k j5$$$%$s*$s*ss$+&$$0l8j.z9l",
"j2j,j<l1$%a+a++a%*s+**% k,j3lXl,h;z3jrl $%a+a++a%*s+**%3l3l.h0h,",
"rh,k8k2%aa**$**$++a$aa*%%j2h k9l5k8h5h &aa**$**$++a$aa*%%k.k<l>l",
"k.j>j $**%saa*a*+*+**%a**$$7l:l h:l l,+**%saa*a*+*+**%a**$$3l l3",
"5j.d2l +%s***sa&a%a*a*%a%*qz1l4h j,l.lr+%s***sa%a%a*a*%a%*,j0k h",
"h9l3l%+%**%%sa%*a*s%*%*a*+lXk0l:lqk l%+%**%%sa%*a*s%*%*a*+h:j2zw",
"3j k*$$+*$+*a**s*%*a%+*%+$$$:k;k kyk*$$+*$+*a**s*%*a%+*%+$$$,k.l",
"l3l$$%a*%+%**%%s**%**%++a**&+>k8$.z$+&a*%+%**%%s**%**%++a**%$>kX",
",k$%*a*a%%%*$%%a%*%$%%%%*aa*8h2$ak+%&s*a%%%*$%%a%*%$%%%%*aa*5j9l",
"l2j*a*as*%%%++%*$*+%***aa**a*2kas9laa*as*%%%++%*$*+%***aa**aa5l5",
"yl$%%asaa**%%++%+%%%%*assa**&%$asj$%%asaa**%%++%+%%%%*assa**%%Xz",
"j2l **sa**s%%%%%%**%%**a*s+%l9$ss$j<**sa**s%%%%%%**%%**aas+%lql.",
",j8$$+a%%sa%*a*%*a***a*%&s&$$$aasa$$$+a%%sa%*a*%*a***a*%*a&+&+7j",
"j+%&+%$+*a%*asa**sa*aaa%%%$&$sasaaa$+%$+*a%*asa**sa*aaa%%%$&&$$+",
" j&$a++$a*+asa**aas**%a+++$$asassasa$$+$a*+asa**aas**%a+++$++&+g",
"k+%a&$$+*+%*s*%aa*s%%+%$+&&asaasasaaa$$+*+%*s*%aa*s%%+%$+&&a$$++",
"u&&&$&$&$$+aa%%a*%a*%+++$$**asasasas$+$&$$+aa%%a*%a*%+++$$&&s$+z",
"++ +&&&a&&$*++%%&+%*+&+$$$%$s*$s*ss$+%$$&&$*++%%&+%*+&+$&+$+%& p",
" k+&&+aaa&$++$+$+++*+$&$$%a+a++a%*s+**%aa&$++$+$+++*+$&$&&&+. +l",
"h+&&+aa&&+a&+$$+$$$+$&a%aa**$**$++a$aa*%%+a&+$$+$$$+$&aa$&$&+$&+",
"cz+ a$&+$a&$&a&$*$&&$$$**%saa*a*+*+**%a**$$$&a&$*$&&$$&a*$++$$++",
"zc+$+&+$&&$&aaa&a&&a&&*+%s***sa%a%a*a*%a%*$&aaa&a&&a&&**a*+$&+lb",
"m+&$+$+&+$&a$&aa*a$&a%+%**%%sa%*a*s%*%*a*+&a$&aa*a$&a$a*&as$&$+k",
"++++$&$++$a&&a&a$&a$*$$+*$+*a**s*%*a%+*%+$$$&a&a$&a$a+&a+ $+++kJ",
"vloo&$++$+$+a*+s$&a$$%a*%+%**%%s**%**%++a**%$*$a$&a+&$  $$+oo@ l",
"jo@$++$+ $++&++&++$%*a*a%%%*$%%a%*%$%%%%*aa**++&++&s%++++&*+o#@ ",
"V-@+o++$$+ $$ .$  &aa*as*%%%++%*$*+%***aa**a*  $ .&$ +$++$$++-Kl",
"j#oooo$$+++$+++ ++$%%asaa**%%++%+%%%%*ass****%+ ++++++$$+$o$@#gv",
"B@#oo$+o+$&++$$++$++**sa**s%%%%%%**%%**ass+%+$$++$++$+$&$++oo@#k",
"j.@@o+oo&&$$$$++$$+$$+a%%sa%*a*%*a***a*%*a&+&+++$$+$$+$&&&o@##lV",
"bj@oooo$+$$&&$$+&$$&+%$+*a%*asa**sa*aaa%%%$&&$$+&$+$&$$$$+o#@@Nj",
"hm@#-@o+o+$&$+$$&&&$a++$a*+asa**aas**%a+++$++&$$&&$$&&&o+o@-#xl ",
" lN@@oo@o$&++++Oo+%a&$$+*+%*s*%aa*s%%+%$+&&a$$++o&Oo$&+oo#@#@kZz",
"g kxk@#@@o#oooooo&&&$&$&$$+aa%%a*%a*%+++$$&&a$+oo&ooooo@@#j.j gb",
"Bhmjmg k#-@@##@o++.+&&&a&&$*++%&&+%*+&+$&+$+&&.o@#o@@#o@Dh.gKlZl",
"k kmjCz.hClC@Mk#j +&&+aaa&$++$+$+++*+$&$&&&+  +@lJ@.l@#MhKjZk hJ",
" lPgCj jZhvjxk.h +&&+aa&&+a&+$$+$$$+$&aa$&$&+$&+Zl jmjHlVkSl hFz",
"kKkAhZh.gblBj kCjC+.s+&+$a&$&a&$*$&&$$*a*$++$$++gbjBz kvk jbkDlQ",
" kMfvjVkBl lBl jZl+++&+$&&$&aaa&a&&a&&**a*$$&+mjNkxlQl kVlnk.fml",
"hBlCl.hmlMhnlbh j+&$+$+&+$&a$&aa*a$&a$**&aa$&$+Vk jZjIkKjZh.zJkC",
"Pl lAlMk.hIkmjbj++++$&$++$a&&a&*$&a$a+%s+ $+++Jg kWk k!jBhUhJj l",
"jTkmlHl jMj kFzDjHoo&$++$+$+s&$s$&a+&$ .$$+oo@gAhLg gBzCj hFlPgB",
" gZkCkFkCk.gKkJh o@$++$+.$++&++&++&a&++++&&+o#@jNjQjNlLj kZl lKk",
"hFh lNzJjDhTj.hNl-@+o++$$+ $$  $ .&$ +$++$$++-jNg.gGjYhbjJl.kJh ",
"CkCj.kmj.kCjCgPhJ#oooo$$+++$+++ ++++++$$+$o$@#Gf hKjnk hnlIhPjJk",
"hVk.fNkIh.lRkCgNg@#oo$+o+$&++$$++$++$+$&$+$oo@#Jl kJhJl gPkFkLg.",
"LlNh gVjKgLl hFjCk@@o+oo&&$$$$++$$+$$+$&&&o@##Jj.jUhJfFjCh hFgMh",
"l zKgDkNjJg kLjnj @oooo$+$$&&$$+&$+$&$$$$+o#@@h gJjJkBg hMgDj jJ",
"HkJgJk jFkGh jFlWl@#-@o+o+$&$+$$&&$$&&&o+o@-#lJkDh gEjFk lJlJjIl",
"kUl lJjPf.jHlJkTk g@@oo@o$&++++Oo&Oo$&+oo#@#@Zh kGh~j kIgThPkLk ",
"UkHz lHhPjWhJk j~lUk @#@@o#oooooo&ooooo#@#Fz.jIg~k jLjPkYl jCkCj",
"j j~jDjFg kIlYk gLjThJhI#-@@##@o@#o@@#o@hFjWh.jTjFjTkWj hThHl.fT",
"HzFgKk hHgJk hLjUjYkKk kYjUj@lF@Ik@j @#lPh.jHjHkNhKl gHjHk hPjFf"
};
