/* XPM */
static char *result[] = {
/* columns rows colors chars-per-pixel */
"64 64 106 2 ",
"   c #000100",
".  c #000A00",
"X  c #001300",
"o  c #001800",
"O  c #004C3F",
"+  c #00543E",
"@  c #004747",
"#  c #004C45",
"$  c #00444C",
"%  c #004C4C",
"&  c #005345",
"*  c #005D44",
"=  c #00534C",
"-  c #005A4C",
";  c #004553",
":  c #004C53",
">  c #00425D",
",  c #004C5B",
"<  c #005353",
"1  c #005B53",
"2  c #00545B",
"3  c #005A5A",
"4  c #006041",
"5  c #006C42",
"6  c #00634D",
"7  c #006B4D",
"8  c #00704E",
"9  c #006253",
"0  c #006A54",
"q  c #00625D",
"w  c #00695A",
"e  c #004567",
"r  c #004B63",
"t  c #00456B",
"y  c #004C6B",
"u  c #005364",
"i  c #005B61",
"p  c #00536C",
"a  c #005B6D",
"s  c #004372",
"d  c #004D73",
"f  c #00447A",
"g  c #004B7B",
"h  c #005373",
"j  c #005C74",
"k  c #00537C",
"l  c #005C7B",
"z  c #006262",
"x  c #00666C",
"c  c #006174",
"v  c #006A70",
"b  c #00627B",
"n  c #00C400",
"m  c #00CD00",
"M  c #00D400",
"N  c #00DC00",
"B  c #00E400",
"V  c #00EB00",
"C  c #00F300",
"Z  c #00FE00",
"A  c #003E8A",
"S  c #003C91",
"D  c #004681",
"F  c #004B84",
"G  c #00458B",
"H  c #004C8C",
"J  c #005485",
"K  c #005A83",
"L  c #00538C",
"P  c #005A8C",
"I  c #004494",
"U  c #004C94",
"Y  c #00469C",
"T  c #004C9B",
"R  c #005394",
"E  c #005B93",
"W  c #00539C",
"Q  c #005B9B",
"!  c #006485",
"~  c #006985",
"^  c #00618C",
"/  c #006394",
"(  c #006891",
")  c #00629B",
"_  c #006999",
"`  c #0044A2",
"'  c #004CA3",
"]  c #0043AC",
"[  c #004CAC",
"{  c #0053A4",
"}  c #005AA3",
"|  c #0053AC",
" . c #005BAA",
".. c #0044B2",
"X. c #004CB3",
"o. c #004BBB",
"O. c #0053B3",
"+. c #005BB5",
"@. c #0052BC",
"#. c #005ABA",
"$. c #0063A3",
"%. c #0068A4",
"&. c #0060B2",
"*. c #0054C2",
"=. c gray66",
"-. c white",
/* pixels */
"Z < C & Z % Z 3 Z : Z 2 Z & Z - Z * Z & Z & Z < Z 2 Z % Z - Z : Z - Z - Z = Z - Z : Z & Z - Z 1 Z = Z % Z < Z 1 Z < Z & C ; Z 6 ",
"- Z = Z % Z , Z $ Z - Z & Z < Z 2 Z < Z < Z 1 Z % Z , Z : Z - Z & Z : Z 2 Z = Z < Z 7 Z = Z : Z - Z 6 Z - Z * Z < Z & Z = Z % Z ",
"Z & Z < Z @ Z < Z < Z : Z 3 C = Z 1 Z < Z - Z , Z , Z 1 Z * Z < Z < Z = Z < Z % Z - Z e Z = Z * Z # C - Z < Z 1 Z 1 Z * Z = Z u ",
"< Z # Z : Z % Z 9 Z 3 Z = Z , C 2 Z 3 Z 9 Z = Z : Z % Z * Z # Z % Z < Z # Z & Z < Z % Z = Z = Z < Z 9 Z < Z $ Z 1 Z - Z 1 Z - Z ",
"Z & Z < Z 3 Z % Z 2 Z 3 C < Z i Z : Z - Z 6 Z & Z < Z = Z - Z - Z % Z % Z & Z % Z = Z * Z * Z - Z 6 Z = Z < Z 2 Z < Z < Z - Z = ",
"% Z 2 Z . C = Z - Z : Z 3 Z : Z q Z - Z : Z : Z 1 Z - Z 7 Z % Z : Z - Z * Z : Z < Z > Z % Z 2 Z 1 Z : Z : Z % Z = Z * Z 1 Z < C ",
"Z 3 Z 1 Z % Z 2 C . Z * Z - C < Z 2 Z . Z & Z 0 Z   Z u Z = Z = Z   Z 3 Z ; Z   Z 6 C - C < Z : C . C 1 Z - Z . Z & Z & Z - Z . ",
", Z = Z   Z 6 Z < Z - Z   Z < Z 2 Z . Z ; Z & Z - Z : Z . Z , Z % Z X Z & Z : C 2 Z X Z * Z 2 Z . Z 3 Z : Z 1 Z = Z   Z : Z - Z ",
"B : C - V 0 N % N   N % B 9 C . N : C : M = C * V   V < V   N = C = C 1 C = B   C % Z 1 Z   B < V = V : C % N . N * V . C 3 V 9 ",
"- N 0 Z # V $ B   B 2 V   C - C ; B % N % N . V 1 C % B . N : V q Z : B % V   M < M . C 6 C : V = N ; B . N < C < C   N = C - V ",
"V . N : V % C . V 1 N , V : V * V   N : N   C < V % C - V , N   V = V 6 C   N = V % B - C = C   B < B   V < N = B 2 B ; B   V < ",
". C 1 C % V   V = n 9 B - V = V . N - M   C 1 B < B = B & M   Z - C ; V   B : C 1 C : V < M . M < N   Z 1 C % B 2 C < B . Z 1 C ",
"B = V % B & C * N   C + V   C = B 1 C 3 B < C   C % B - C X V % M % Z - B 9 C   V & B   B % C - C 1 B % B   M - C - C . N 2 N % ",
"1 N % V < V = B . C = Z % C   V - N 8 Z 1 C : B . B = N   V - C % V : N ; B   C 6 V - V . B # N - V 1 B - B . N * V . V & C % C ",
"B . N @ B   V = V - C z B % B . C 2 Z 9 V . V - C O B , C = C   M = C   C % C 6 Z 2 B = V   B , B < B . V & M - V : C - C   C - ",
": B . n = C   C 1 N < B $ B - B . Z - V : N   B - N q C & C : N   B % C . C - C # N < B = B . Z * V % B   N 4 m , C % B , V   N ",
"N 9 C - C . C % B = B . B 9 C % V : V : V X C = N * V X V , C % C 1 V   V , N % Z   B - C - V = V 1 B X Z 9 Z 2 C . M # B = Z 6 ",
"- B   V 1 V < C % N . N = V - V . Z % V = V & V < B . Z # V @ V   V q B ; C % V . N - V 6 Z . Z % C < V < B < V   Z % V % V . C ",
"V - C . C = Z : V # B $ B   C % C : B . V = Z $ B < V X N $ V = Z . Z < C < Z < C = C   C * Z < V X N ; C 2 V = B o V > N $ V X ",
"% C - C . C ; B % B . Z < V 6 B % N . V : C 2 B . B % V : M = N * V   C < M % C   Z 9 C $ C < C   V & N 7 Z o Z , V < V < B 1 C ",
"C % N & C   B - V % N . M = B 1 V - V   B : V % C . C 9 Z # V : B < C X C < Z 1 V . N : C : V 5 V   V : Z = C   V * Z % M : C : ",
"1 V   V , B : V = B < B . V 2 V < N . B : Z 1 C : V . B * B - B   B = V & V % C < Z . B + V < V . Z w C - B < M . B * V 0 Z X Z ",
"V % V   C % V 9 C 1 Z   B : B u C   Z - C % C % N : V   V - -.-.-.-.-.& B 2 V 2 C   B < B % N . C 9 N - M - N = B   C 3 C 3 C . ",
": B < M   B < V 2 V . V % V < B r C 2 V X Z < B < C   B -.-.-.-.-.-.-.-.-.V i C . V 1 C , V 2 C 1 N   M = V ; C . C z Z % Z , B ",
"B j Z   V p N . B h N k C b C p M . V a B 2 Z   N h N -.-.=.-.=.-.=.-.=.-.-.Z k B j C ~ N k M . C y Z j C X C y B k C r M z C o ",
"  B p C   C , B r Z u B u M . C a B j B   V 2 V j Z -.-.-.-.-.-.-.-.-.-.-.-.-.C u M u V . Z z C 2 B   V i C x C p C p C   B t M ",
"V y B p Z y C u V   V u V u C   V 3 V , V r C u C X -.=.-.=.-.=.-.=.-.=.-.=.-.. C h B j C . V l C j C h C h C X V s B   V s C h ",
"y V c B d V h V . V u V   V j V e Z p B p V X C j -.-.-.-.-.-.-.-.-.-.-.-.-.-.-.e B . V c Z e V d B y V . C j N p V X M t N v Z ",
"V   N d C a V . B r N 2 B g V d C   C h C . V t B -.=.-.=.-.=.-.=.-.=.-.=.-.=.-.C d B y V a Z   B d N . B y V g V b B i B   N j ",
". B h B g B   C y V j Z h N a B . V a V   Z g N j -.-.-.-.-.-.-.-.-.-.-.-.-.-.-.l V a C u V   N u N . N x C p B d N y C . V k C ",
"N j M y V r V h B X B j V   N l C h C j C l N . B -.=.-.=.-.=.-.=.-.=.-.=.-.=.-.B d C   V h C j V l C s V   C y V b Z . M g V t ",
"J Z y V g B h C   C d C t Z   N y B a V j V y C . -.-.-.-.-.-.-.-.-.-.-.-.-.-.-.g Z p V   V y C k V g N a M . C r B . C a V p Z ",
"Z J C K B   B k B p C K V . B g M G B   Z h V b B D -.=.-.=.-.=.-.=.-.=.-.=.-.P C J Z . N h B F C   C J C K M J M f C   Z c V J ",
"I N   m L B L V   C R M E M K V L C   B Y B L V   V -.-.-.-.-.-.-.-.-.-.-.-.-.N H N H V R Z Q C   C H N H M . C K Z J N F C . V ",
"B F Z P C . M P C G N . C _ V ! B W V W C . V P C R B -.-.=.-.=.-.=.-.=.-.-.C S M   C $.V J B I B W N . C P Z Q B . M H V L V { ",
"L C . C ! V H N R V . C L V E B   V F m L N ! C P Z   C -.-.-.-.-.-.-.-.-.N P M   B ) C J C . m H V H B b B H Z . C P M H C   C ",
"B W V   B P C L B H N H M . B E V R N . M I V G C R B . C I -.-.-.-.-./ V P m L B Q N . C l C L B   B R V H Z _ C   B U B L V   ",
"P B E C   N Q B D B . C J V E B R V . V L Z ^ Z   V U B L B } V E V   Z R M J N . N P C R M I N . N Q C P Z   C G N G M ) C $.C ",
"N F B U V   V P Z P B . n W N I Z P N . C I B K N . V E C P B R M H N   C F C K N   V ' N I C ) V   C D N A B . V ( B E B H M L ",
"E B   M U M { N U V R N   B [ N I B . Z R V U C ' C   N R V Q V . N G C T V E V R C . V R V L B   C L B H B F V   B E Z W C   B ",
"B . B R B L B W B H B   C / B . C . B R Z Y V P N . C } V T Z   V P B ` m T B ' V . C } N   B . m R Z  .C W V . B Y B ' V   C W ",
"P B Q B ^ C . V W N U B . B Q Z } C T M   B   V %.C X C H B L N Y B } Z   B Y N T B . Z P C W B G B . N   B  .C . V L B ' N Y B ",
"N I C   C ( V . B . B T V E C W N   V T B Y V   C ) V T B Y N T B . C ^ N . C X M R V Q C E N . V ' V Q C . C _ C R V [ V H C   ",
"  C W C X M L N Y N D N Q Z . B L M F N . M E C } V J N   B . V Q C   Z U M ' C T B } Z . C L Z { B   N Q V Q C T C . C   V Q Z ",
"M   V H B T C P C . C [ B T C   Z ^ C T M ' V R N   Z E B . B . B I V U Z Q V . B W M T V . Z } B H B P B T Z . V Q B . B   N R ",
"R N U B U M   V   C } C   V G C ..B W B P C . V H B Q M . B { C U Z W C X C   B  .C . V W B { V R V Q Z . C R V ` N . m Q C Q C ",
"V   V U B W Z . N } C T B T V I B   V W B . B   B I V R V Q V   V R m U C X B ^ B ' M [ N U B . C { N . C . V Y N $.V Q V   B | ",
"  C  .M T V   B Q N J B H C . N   V Q B   C R B ` B W N E V . C U N T N   C E C { N W B   B . C Q C   B U B [ V Q V ) V . N T C ",
"V } V ( N W B . M L C R B   B Q B W M T V L V   B P B . M I M R N | V R N   V U B R V   B E V T M P N R Z   V R V   B R V ` C ) ",
"  V ` m H B E V W C   C E C   B Q V U B [ C / M   B } C H B . N ' M ) C { Z T N . B L B   Z R B T V L C ) C   V E C I V . m T Z ",
"N R V { C . N U C Y N I C L N   B H B   C [ V } B  .B O.B   N U B ' B   N ' M X.V T V { B . V E V   B W B ..V  .B Q N . Z { B W ",
" .C   C _ C Y V . N ..V T B L B ` V   M W C   N ' Z U N | B T V   N { C { Z   M  .N  .N } M { M   C +.V   V +.B R N ..B { V   V ",
"B O.V U C X.C   B ` N   C ' Z ` B [ N W N   B ' V  .N   B ' N R V T V | N   N ' B   V { N { M E N | M   N W Z Q B   N ' C  .M R ",
"  N Q V W V ' V Q C . M } V { B   B Y B L V { V ' C   m | M   B | C T N Y C [ B   B ' V U C   V Y N } B Y V | B   V Q C   C } V ",
"N ' B   C T C { B ' N X.V . N T C W N . B Q V Y B  .B { V   V { C   B Y N  .B ] B W N   V { B ' M . M ` B o.B L B { C   V { N   ",
"T V T B . V R B . B Q B T M | N { V   V ` B Y V   B Y V ' B { B T N   B Q B   B U B U B ' B ] M   N } V U V   N Y C [ N | B  .V ",
"N Q B . n T B X.M . C +.V W M T M [ C . V { B { V   Z { B ' V  .N   B ' B ..B . B Y C { B Y B { C   V | N | C   M  .V ' V | M . ",
"| C Y B   M Q B } M | C   N ' B Q V   V { B T V { V R C   B ` M E B   C Q C ` N T V   V [ B { B . B X.N  .m ' B W N   M ' M Y N ",
"C   Z } M ' V T B ' M   V | B I V   V W B ' C  .C   N T N [ m   V ) B W N Y B [ C . B  .C T N   M  .B { V U M   N Y M ' B   B  .",
"[ V { M { V   V { V ] N   B ' C @.C *.N   N +.N | C   N | C X.N [ B | V   N { B ' C   N | C { V Y M   M O.B ' V   C { C  .B ..V ",
"V O.C   C  .N | m . B [ C W V O.V   M [ B | B   C  .V Q B { M O.M   V &.B | B   M W V ] V Q N   C ..N @.B   V X.M O.N  .V | V   ",
"..V [ Z   C ' N | B #.N | V   B *.C ..C   V } C | V +.m   M o.B R B . B  .V +.B  .B [ Z   B X.M @.B   B | B | V o.C   B W B Q B ",
"B   B *.N ' B ' M   B X.C ..V   M | B O.N ' N ..B   B  .B ' N   V ..V { C | B   N ' B #.N . B O.N ' B O.V #.B   N O.N [ C . m X.",
"[ Z { M  .V   N | M { C   N O.B X.B o.V } V   C X.B X.B   C ' m ..V [ B   M X.C  .N . B [ B ' V ' B } C   M [ B [ V   N  .B ' m "
};
