/* XPM */
static char *_c55122465b24eb6808537384ba6ce43SHFODZmyC5e9XfBS[] = {
/* columns rows colors chars-per-pixel */
"64 64 104 2 ",
"   c #000300",
".  c #000B00",
"X  c #001100",
"o  c #004B3D",
"O  c #00533C",
"+  c #00603F",
"@  c #004545",
"#  c #004B43",
"$  c #00424B",
"%  c #004B4B",
"&  c #005243",
"*  c #005D42",
"=  c #00524B",
"-  c #005A4B",
";  c #004352",
":  c #004B52",
">  c #00405D",
",  c #004B5B",
"<  c #005252",
"1  c #005B52",
"2  c #00535B",
"3  c #005A5A",
"4  c #00634C",
"5  c #006B4C",
"6  c #00704D",
"7  c #006252",
"8  c #006A53",
"9  c #00635D",
"0  c #00695A",
"q  c #004367",
"w  c #004A63",
"e  c #00436A",
"r  c #004B6B",
"t  c #005364",
"y  c #005A61",
"u  c #00536C",
"i  c #005B6D",
"p  c #004173",
"a  c #004C74",
"s  c #00407B",
"d  c #004A7C",
"f  c #005174",
"g  c #005B75",
"h  c #00527C",
"j  c #005B7D",
"k  c #006262",
"l  c #00666C",
"z  c #006175",
"x  c #006970",
"c  c #00627C",
"v  c gray37",
"b  c gray38",
"n  c #CF0026",
"m  c #00C500",
"M  c #00CD00",
"N  c #00D500",
"B  c #00DD00",
"V  c #00E500",
"C  c #00EC00",
"Z  c #00F300",
"A  c #00FE00",
"S  c #DBB064",
"D  c #003C8B",
"F  c #004384",
"G  c #004A85",
"H  c #00438C",
"J  c #004B8E",
"K  c #005385",
"L  c #005A83",
"P  c #00528D",
"I  c #005A8D",
"U  c #004295",
"Y  c #004B95",
"T  c #00449D",
"R  c #004B9C",
"E  c #005295",
"W  c #005B94",
"Q  c #00529D",
"!  c #005B9C",
"~  c #006986",
"^  c #00618D",
"/  c #006495",
"(  c #006892",
")  c #00629C",
"_  c #0042A3",
"`  c #004BA4",
"'  c #0041AD",
"]  c #004BAD",
"[  c #0052A5",
"{  c #005AA4",
"}  c #0052AD",
"|  c #005BAB",
" . c #0042B3",
".. c #004BB4",
"X. c #004ABC",
"o. c #0052B4",
"O. c #005BB6",
"+. c #0051BD",
"@. c #005ABB",
"#. c #0063A4",
"$. c #0068A5",
"%. c #0053C3",
"&. c gray73",
"*. c white",
/* pixels */
"A < Z & A # A 3 A : A 2 A & A - A * A & A & A < A 3 A @ A - A : A = A * A < A - A : A & A - A 1 A = A % A < A 1 A < A & Z ; A 4 ",
"- A = A % A w A $ A - A & A < A 2 A < A < A 1 A % A , A : A - A & A : A 2 A = A < A 5 A = A : A = A 4 A - A * A < A & A = A % A ",
"A & A < A @ A < A < A : A 3 Z = A 1 A < A - A , A , A 1 A * A < A < A = A < A % A - A q A = A * A # A = A < A 1 A 1 A * A = A t ",
"< A # A , A # A 7 A 3 A = A , Z 2 A 1 A 7 A = A : A # A * A # A % A < A # A & A < A % A = A = A < A 7 A < A $ A 1 A - A 1 A - A ",
"A & A < A 3 A % A 2 A 3 Z < A y A , A - A 4 A & A 2 A = A - A - A % A : A & A % A = A * A = A 1 A 4 A = A = A 2 A < A : A = A = ",
"% A 2 A   Z = A - A : A 3 A : A 9 A - A : A : A 1 A - A 5 A % A < A = A * A , A < A > A # A < A 1 A , A , A % A & A - A 1 A < A ",
"A 3 A 1 A % A 2 Z   A * A - Z < A 2 A   A & A 8 A   A t A = A = A   A 1 A ; A   A 4 A = A < A < Z   Z 1 A - A   A & A * A - A   ",
", A = A &.&.4 &.&.A - A   A < A 2 A   A ; A S S S S S S S S S S S S S S S S S S S S S S S S S A   A 3 A % A 1 A = A   A : A = A ",
"V : Z - &.&.B &.&.  B % V 1 Z   B : Z S S S S S S S S S S S S S S S S S S S S S S S S S S S S S C = C : Z % B   B * C   Z 3 C 7 ",
"- B 8 A &.&.$ &.&.V 2 C   Z - Z S S S S S S S S S S S S S S S S S S S S S S S S S S S S S S S S S S ; V   B < Z < Z   B = Z - C ",
"Z   &.&.C &.Z &.&.1 B , C : C S S S S S S S S S S S S S S S S S S S S S S S S S S S S S S S S S S S S   C < B = V 2 V ; V   C < ",
"  C &.&.% &.&.C &.&.7 V - C = S S S S S S S S S S S S S S S S S S S S S S S S S S S S S S S S S S S S S 1 Z % V 2 Z < V   A 1 Z ",
"V = &.&.&.& &.&.B &.&.O C   Z = V 1 Z 3 V :     Z # V 1 Z . C % B % A - V 1 Z   C & V     : Z = Z 1 V % V   N = Z - Z   B 2 B # ",
"1 B % C &.&.= &.&.Z &.&.% Z   C - B 6 A < Z   V   V = B   C 1 Z % C , N % V   Z 4 C - C     # B - C 1 V - V . B * C   C & Z % Z ",
"V   B @ V &.&.= &.&.Z &.n % V   Z 2 A 7 Z     - Z o V , Z # Z   B # Z   Z % Z - A 2 B = C   V , V 2 V   C & B % C : Z - Z   Z 1 ",
": V   m = Z &.&.1 &.n n n n - V   A - C : B   C = B 9 Z * Z ; B   V % Z   Z 1 Z # B = C %     A * C # V   B * M , Z % V , C   B ",
"B 7 Z - Z   Z &.&.n n n n n n % C < C : C .   & B * C . C , Z # Z 1 C   Z w B % Z   C - Z %   # V < V . A 8 A 2 A   N # V % A 7 ",
"- V   C 1 C 2 Z n n n n n n n C   A % C = C   C < V   A # C @ Z   C 3 V ; Z % C . V = C 4 A     = Z = C < B < V   A @ C % Z   Z ",
"Z - Z   Z = A : C n n n n n n n Z , V   C     $ &.&.C X B @ V < A   A < Z : A < Z = Z   Z 4 A   C X B ; Z 2 C = V . C > B $ C . ",
"% C - Z   Z ; V % V n n n n n n # B   C       B &.&.% C , N = B & C   Z = N % Z   A 7 C $ Z <     C & B 5 A X A , C < Z < V 1 Z ",
"Z % B & Z   V - C % n n n n n n n < C         &.&.&.&.4 A # C , C : Z . Z < A 1 C   N : Z : C       V : A # Z   Z * A # N , Z % ",
"1 C   C , V : C = V n n n n n n n n           &.&.&.&.V + B - C   V = C # C # Z : A   V O C < C   A 0 Z - V < N   V = C 8 A X A ",
"C % C   Z % C 7 Z 7 A b b b b b b             &.&.&.&.&.C - C < M   V # V 3 C < Z   V < V : B       B - N = V = V   Z 3 Z 3 Z   ",
": V : N   V < C 2 C   b b b b b               &.&.&.&.&.k V 1 V , V   C w C y Z   Z 1 Z , C 2 A 1     B 1 C ; Z   Z k A % A , V ",
"V g A   C u B   V f B h n n n n               &.&.&.&.&.V f C h C   C q C   A h V g Z ~ B h N   Z     g Z . Z r B f C w B y Z . ",
"  V u Z   Z , V w A t V n n n                   &.&.&.&.t B   Z , B   A t Z 2 Z t N t C   A k Z 2 V   C t Z l Z i Z u Z   V r N ",
"C r V u A r Z t C   C t C n n                   &.&.&.&.C   C a Z g V h C e C   Z a V g     C h C a   a Z u Z . C a V   C p Z f ",
"r C g V a C a C   C t C   n n                   &.&.&.&.&.C w V i Z a A u B   V e V       A w C f C   C . Z g B r C . N r B x A ",
"C   B a Z i C   V w V , V n                       &.&.&.&.a V   Z t Z x Z   V r Z a     C i A   V a     V r C d C c V y B   B g ",
"  V f V d V   Z e C g A f V                       &.&.&.&.V   A a C d V   B t V j C     t C   B t B     l Z u V a B r Z   C j Z ",
"B g N r C w C f V . V g V                                   C a m u V a Z u Z   V       C a Z g Z S Z       Z u C c A   N d V r ",
"K A r C d V f Z   Z a Z r                                     V g C a C u B   V           C r Z d S S S   S   Z w V   Z i C r A ",
"A I Z I V   V h V u Z K V                           &.&.        Z j C   N G C             a V G Z   S S   S S K N s C   A z C I ",
"Y B   M J V P C   Z E N S S S                       ! V R Z       Z W V ( V       B J C     R Z   Z S S   S S S K A P V G Z   C ",
"B F Z ^ Z   N I Z H B S S S S S S                   &.&.&.&.&.    &.&.  V J     N   Z $.C     Y V Q S S   S S S S   N G Z P V { ",
"P Z   Z ~ C J B E C S S S S S S S S S S                   &.&.    &.&.&.Y V I N   V ) Z K Z     J Z S S   S S S S S I N J Z   C ",
"V ! V   V I Z P V S S S S S S S S S S S S S S                     &.&.&.C I N P C Q B   Z j Z       S S   S S S S S S Y V P C   ",
"I V W Z   B Q V S S S S S S S S S S S S S S S S S S S S S S &.&.&.Z   A Y N K B   B I Z W M U B     S S   S S S S S S S ) Z { Z ",
"V F V Y C   C S S S S S S S S S S S S S S S S S S S S S S S S S S J B   Z K Z L B   C ` B Y Z ! C   S S   S S S S S S S V J N J ",
"W V   N Y N ` S S S S S S S S S S S S S S S S S S S S S S S S S S B D Z R V W C E Z   C Y V G V   Z S     S S S S S S S Q Z   C ",
"V   C E V P V S S S S S S S S S S S S S S S S S S S S S S S S S S J V ` m Q V ` C   Z { N   V   m Y     &.&.&.&.&.&.&.&.C   Z Q ",
"P V ! V I Z   C S S S S S S S S S S S S S S S S S S S S S S S S S V { A   V T B R V   A I Z ! V J V     &.&.&.&.&.&.&.V ` B T V ",
"B D Z   Z ( C   V S S S S S S S S S S S S S S S S S S S S S S S S   Z ^ B   Z . M E C ) Z W B   C       &.&.&.&.&.&.&.] C J Z   ",
"  Z [ Z . N P B T B S S S                 S S S S S S S S S S S S Z   A Y N ` Z R V { A               &.&.&.&.&.&.&.  Z   C ! A ",
"N   C Y C R Z I Z   Z S     v v v v v v   S S S S S S S S S S S S U C Y A ! C   V Q B     v v v v v     &.&.&.&.&.&.V   V   B Y ",
"E B Y V U N   C   Z {     v           v     S S S S S S S S S S S A Q Z . Z   V | Z     v           v     &.&.&._ B   M ! Z ! Z ",
"C   C Y V R A   B {     v               v     S S S S S S S S S S E M Y Z . V I C     v               v     C T B #.C ! C   V } ",
"  Z | N R C   V ! B   v                   v     S S S S S S S S S B R B   Z W Z     v                   v   ] C ! C ) C   B R Z ",
"C { C ( B Y V   N E                         v     S S S S S S S S } C Y B   C     v                         C Y C   V P C _ Z #.",
"  C ` m J V W C E Z           &.&.&.          v                                 v           &.&.&.            C W Z U C   M Y Z ",
"B Y C R Z   B Y Z T         &.*.*.*.&.        {                                 C         &.*.*.*.&.        C | V ! B   A [ C Q ",
"| A   Z / Z ` C   B         &.*.  *.&.        B ` Z Y B } V Q V   B { Z ` A   N |         &.*.  *.&.        O.V E B  .V [ C   C ",
"V o.C Y Z ] Z   V _         &.*.*.*.&.        [ C | B   B [ B E C R C } B   B ` V         &.*.*.*.&.        A ! V   B ` Z | N Y ",
"  B { C Q C ` V ! Z           &.&.&.          V ` Z   N ] N   V ] Z R B T Z ] V             &.&.&.          ] V   C ! Z   Z { C ",
"B ` V   Z R Z { V _ B                       C R V ` C [ C   C [ Z   V U B | V ' V R                       X.B I V ` Z   C [ B   ",
"R C R V   C E V   V ! V                   V T V   V T C [ V ` V ` B   V ! V   V Y V Y                   Y C   B U Z ..B | V [ C ",
"B ! C   m R C ..B   Z O.V               C { V { C   A [ V ` C | B   V ] V  .C   V T Z [               [ B } Z   N | C ` C } N   ",
"} Z T B   N Q V { N } Z   V           C ` B R C ` C E Z   V _ N W V   C Q Z _ B R C   C ]           ..B [ M ` V [ B   N ` B T N ",
"Z   Z #.N ` C R V ` N   C } V D C   C Q V ` Z | Z   B R B ] M   C ! V ! B T V ] Z   V | Z R B   N ] B } C E N   B T N ` V   V [ ",
"] C [ N { C   V ` C ' B   B ] Z X.Z %.B   B @.B } Z   B } Z ..B ] V [ C   B [ V ` Z   B ] Z { C T B   N o.V ` C   Z [ Z | V  .Z ",
"C ..Z   Z | B ] M   V ] Z Q C O.C   M ] V ` V   Z | C ! V ` N o.N   Z O.V } V   B [ C ' C ! B   Z  .B +.V   C ..N o.B | C } C   ",
"..C ] A   C ` V o.V o.B } C   V %.Z ..Z   V | Z } C @.M   N X.V E B   V } Z O.V ` V ` A   V ..N +.V   V ] V } C X.Z   V Q V ! V ",
"V   V %.V ` V ` B   V ..C X.V   N } V o.B [ B  .V   V | V ` V   C  .C [ Z ] V   B ` V @.B   V o.B ` V o.C @.V   B o.B ] C   m ..",
"] A ` N | C   B ] N { C   V ] V ..V X.C { C   Z ..V ..V   Z ` m  .C ] V   N ..Z | B   V ] V ` C ` V { Z   N ] V ] C   B | C ` M "
};
