/* XPM */
static char *result[] = {
/* columns rows colors chars-per-pixel */
"64 64 103 2 ",
"   c #000100",
".  c #000A00",
"X  c #001300",
"o  c #001800",
"O  c #004C3F",
"+  c #00543E",
"@  c #004747",
"#  c #004C45",
"$  c #00444C",
"%  c #004C4C",
"&  c #005345",
"*  c #005D44",
"=  c #00534C",
"-  c #005A4C",
";  c #004553",
":  c #004C53",
">  c #00425D",
",  c #004C5B",
"<  c #005353",
"1  c #005B53",
"2  c #00545B",
"3  c #005A5A",
"4  c #006041",
"5  c #006C42",
"6  c #00634D",
"7  c #006B4D",
"8  c #00704E",
"9  c #006253",
"0  c #006A54",
"q  c #00635D",
"w  c #00695A",
"e  c #004567",
"r  c #004B63",
"t  c #00456A",
"y  c #004C6B",
"u  c #005464",
"i  c #005A61",
"p  c #00546C",
"a  c #005B6D",
"s  c #004372",
"d  c #004D73",
"f  c #00427A",
"g  c #004B7B",
"h  c #005273",
"j  c #005B74",
"k  c #00537B",
"l  c #005B7C",
"z  c #006262",
"x  c #00666C",
"c  c #006174",
"v  c #006970",
"b  c #00627B",
"n  c #00C400",
"m  c #00CC00",
"M  c #00D400",
"N  c #00DC00",
"B  c #00E400",
"V  c #00EB00",
"C  c #00F300",
"Z  c #00FE00",
"A  c #003E8A",
"S  c #003C92",
"D  c #004583",
"F  c #004B84",
"G  c #00458B",
"H  c #004C8D",
"J  c #005484",
"K  c #005A82",
"L  c #00538C",
"P  c #005A8C",
"I  c #004494",
"U  c #004C94",
"Y  c #00469C",
"T  c #004C9B",
"R  c #005394",
"E  c #005B93",
"W  c #00539C",
"Q  c #005B9B",
"!  c #006985",
"~  c #00618C",
"^  c #006494",
"/  c #006891",
"(  c #00629B",
")  c #006999",
"_  c #0044A2",
"`  c #004CA3",
"'  c #0043AC",
"]  c #004CAC",
"[  c #0053A4",
"{  c #005AA3",
"}  c #0053AC",
"|  c #005BAA",
" . c #0044B2",
".. c #004CB3",
"X. c #004BBB",
"o. c #0053B3",
"O. c #005BB5",
"+. c #0052BC",
"@. c #005ABA",
"#. c #0063A3",
"$. c #0068A4",
"%. c #0060B2",
"&. c #0054C2",
/* pixels */
"Z < C & Z # Z 3 Z : Z 2 Z & Z - Z * Z & Z & Z < Z 3 Z @ Z - Z : Z = Z * Z < Z - Z : Z & Z - Z 1 Z = Z % Z < Z 1 Z < Z & C ; Z 6 ",
"- Z = Z % Z r Z $ Z - Z & Z < Z 2 Z < Z < Z 1 Z % Z , Z : Z - Z & Z : Z 2 Z = Z < Z 7 Z = Z : Z = Z 6 Z - Z * Z < Z & Z = Z % Z ",
"Z & Z < Z @ Z < Z < Z : Z 3 C = Z 1 Z < Z - Z , Z , Z 1 Z * Z < Z < Z = Z < Z % Z - Z e Z = Z * Z # Z = Z < Z 1 Z 1 Z * Z = Z u ",
"< Z # Z , Z # Z 9 Z 3 Z = Z , C 2 Z 1 Z 9 Z = Z : Z # Z * Z # Z % Z < Z # Z & Z < Z % Z = Z = Z < Z 9 Z < Z $ Z 1 Z - Z 1 Z - Z ",
"Z & Z < Z 3 Z % Z 2 Z 3 C < Z i Z , Z - Z 6 Z & Z 2 Z = Z - Z - Z % Z : Z & Z % Z = Z * Z = Z 1 Z 6 Z = Z = Z 2 Z < Z < Z = Z = ",
"% Z 2 Z . C = Z - Z : Z 3 Z : Z q Z - Z : Z : Z 1 Z - Z 7 Z % Z < Z = Z * Z , Z < Z > Z # Z < Z 1 Z , Z , Z % Z & Z - Z 1 Z < Z ",
"Z 3 Z 1 Z % Z 2 C . Z * Z - C < Z 2 Z . Z & Z 0 Z   Z u Z = Z = Z   Z 1 Z ; Z   Z 6 Z = Z < Z < C . C 1 Z - Z . Z & Z * Z - Z . ",
", Z = Z   Z 6 Z < Z - Z   Z < Z 2 Z . Z ; Z & Z - Z : Z . Z , Z % Z X Z & Z : C 2 Z X Z & Z , Z . Z 3 Z % Z 1 Z = Z   Z : Z = Z ",
"B : C - V 0 N % N   N % B 9 C . N : C : M = C 6 V   V < V   N = C = C 1 C = V   C % Z 1 Z   B < V = V : C % N . N * V . C 3 V 9 ",
"- N 0 Z # V $ B   B 2 V   C - C ; B # N : N . B 1 C % B . N : V q Z : B $ V   M < M . C - Z : C = N ; B . N < C < C   N = C - V ",
"C . N : V % C . V 1 N , V : V * V   N : N   C < V % C - V : N   V = V 6 C   N = V = B = C % C   B < B   V < N = B 2 B ; B   V < ",
". V 1 C % V   V = n 9 B - V = V . N - M   C 1 B < B < B & M   Z = C ; B   B < V 1 C , V < N . M < N   Z 1 C % B 2 C < B . Z 1 C ",
"B = V % B & C * N   C + V   C = B 1 C 3 B < C   C # B 1 C o V % N % Z - B 9 C   V & B   B : C = C 1 B % B   M = C - C . N 2 N # ",
"1 N % V < V = B . C = Z % C   V - N 8 Z < C : B . B = N   V 1 C % V , M % B . C 6 V - V . B # N - V 1 B - B X N * V . V & C % C ",
"B . N @ B   V = V - C z B % B . C 2 Z 9 C . V - C O B , C # C   N # C . C % C - Z 2 N = V   B , B 2 B . V & N = V : C - C   C 1 ",
": B . n = C   C 1 N < B $ B - B . Z - V : N   V = N q C * C ; N   B % C . C 1 C # N = V = B . Z * V # B   N * m , C % B , V   N ",
"N 9 C - C . C # B = B . B 9 C % V < V : V X C & N * V X V , C # C 1 V   C r N % C   V - C = V # B < B o Z 0 Z 2 Z   M # B % Z 9 ",
"- B   V 1 V 2 C % N . N = V = V . Z % V = V & V < B . Z # V @ C . V 3 B ; C % V X B = V 6 Z X Z = C = V < N < B   Z @ V % C . C ",
"C - C . C = Z : V # B $ B   C % C , B . V = Z $ B < V o N @ B < Z . Z < C : Z < C = C   C 6 Z < V o N ; C 2 V = B o V > N $ V X ",
"% V - C . C ; B % B . Z < V 6 B # N . V , C 3 N . B % V , M = N & V . C = M % C   Z 9 V $ C < C   V & N 7 Z o Z , V < C < B 1 C ",
"C % N & C   B - V % N X M = B 1 C < V   B : V # C   C 6 Z # V , V : C o C < Z 1 V . M : C < V 5 B   B < Z # C   C * Z # M , C % ",
"1 V   V , B : V = B < N . C , V < M . B % Z 3 C : V . B 4 N - V   B = V # V # C < Z . B + V < V . Z w C - B < M . B = V 0 Z o Z ",
"V % V   C % V 9 C 9 Z   B : B u C   Z * C % C % B , V   V - V < m . B # B 3 V < C   B < B : N   C 9 N - M = B = B   C 3 C 3 C . ",
": B < M   B < V 2 V   V % V < B u C 2 V X Z < B < V   V z B 1 B , B . V r V i C . C 1 C , V 2 Z 1 N   N 1 V ; C . C z Z % Z , B ",
"B j Z   V p N . B h N k C b C p M . V p V 2 Z   N h N p B h V k V   V e V . Z k B j C ! N k M . C p C j C X C y N h V r N i C o ",
"  B p C   C , B r Z u B u M . C a B h B   B , V j Z w C u N . C , N . Z u C 2 C u M u V . Z z C 2 B   V u C x C a C p C   B y M ",
"V y B p Z y C u V   V u V u C   V 3 C 2 V r C u C X B p V . V h C j B k V t V . C h B j C . V k V h C h C p C o V d B   V s C h ",
"y V c B d V h V . V u V   C j V t Z y B p V X C j N h B   V r B a C d Z p N . B t B . V j Z r V h V y V X C j N y V X M y N v Z ",
"V   N d C a V . B r B , B g V d C   C h C . V t B p Z j C h B   C u C v C   B y C d B y V a Z   B d N . B y V g V b B i N   N j ",
". B h B g B   C t V j Z h B p B . V a V . Z g N j B i B u B   Z d V g B . N u B l V a C u V   N u N . N x C p B d N y C . V l C ",
"N j M y V r V h B X B j B   N l C p C j C l N . B h C f B . V h n p B h C p C . B h C   V h C j C k C d V   C p V b Z . M g B y ",
"J Z y V g B h C   C d C y Z   N y B j V j B y C . N d V . C k B j V d V p N   B g Z y V   V y C k V g M p M . C r B . C a V y Z ",
"Z P C P B   B k B p C K B . B g M G B   Z h C l B D V S N . Z k C l V   M F V P C J Z . N h B F C   C J C K M J M f V   Z c V P ",
"U N   m L B L V   C R M E N K V P C   B Y B L V   V ( B T C R N   C E B / B   B H N H V R Z W C   C F N H M . C K Z L B F C . V ",
"N D C ~ C . M P C G N . Z ( B ~ N W V W C . V P C R B . B I V G Z R Z . B L V S M   C $.V J B U B W N . C P Z Q B . M F C L B { ",
"L C . C ! V H N R V . C L V E B   V F n P N ! V P Z . C P C H C   V E V U B P M   B ( C J C . m H C U B b B F Z . C P M H C   V ",
"B Q B   B P C L B F N L M . B P V R N . M I V G C R B . V U B J B . C ^ V P M L V W N . C l C P N   B U V H Z ) C   B U B L V   ",
"P B E C . N W B D B   C P B E V R V . V P Z ~ Z   V U B P B { B R C   Z U M J N . N P C E m I N . N Q Z P Z   C G N G M ( C { C ",
"B D B U V   V P Z P B . n W N U Z L N . C I B K N . V E C P B R M H N   C J C K N   V ` N U C ( V   C D N A B . V / B E B H M L ",
"E B   M U M ` N R V W N   B ] M U B . Z R V U C ` C   N R V Q V . N A C T B E V R C . V U B F B   C L B H B F V   B ^ C W C   V ",
"B . V R B L B W B F B   C / B . C . B R Z Y V P N . C | V U Z   V L B ` n W B ` V . C { M   B . n R Z | C T V . B Y B ` V   C W ",
"L B Q B P C . V W N T B . B Q Z { C T M   B   V $.C X C H B L N Y B { Z   B Y N T B . Z P C Q B H B . N   V | C . V L B ` N Y B ",
"N I C   C / V . B . B T V E C W N   V T B T V   C ( V T B Y N T B . C ~ N . C X m R V ( C E N . V ` V Q C . C ( C R V ] V H C   ",
"  C W C X M L N Y N D N Q Z . B L M F N . m E C { V J N   B . V Q C   Z U M ` C T B { Z . C P Z [ B   N Q C Q C T C . C   V Q Z ",
"M   V H V T C P C . C ] B T C   Z ~ C T M ` V R N   Z E N . B . B I V U Z Q V . B W N T V   Z { B H B L B T Z . V Q B . B   N R ",
"R N U B I M   V   C { C   V G C  .B W B P C . V H B Q M . V [ C U Z W C X C   B | C . V W B [ B R V ( Z . C R V _ N . m Q C Q C ",
"V   V U B W Z . N { C T B T V I B   V W B . B   B I V R V Q C   V R m U C X B ~ V [ M ] N U V . C [ N . C . V Y N #.V Q V   B } ",
"  C | M T V   B Q N J B H C . N   V Q B   C R B _ B W N E V   C U N T N   C E C [ M T B   B . C Q C   N U B ] V Q V ( V . N T C ",
"V { V / N R B . M R C R B   V Q B W M T V L B   B ~ B . N I M E N } V R N   V U B R V   N ^ V T N P N R C . V R V   B L V _ C #.",
"  V ` n H B E V R C   C R C   B Q V U B ] C ^ M   B { C H N . M ` M ( V [ Z T N . N P B   Z U B T V H C ( C   V E C I V . m U C ",
"N U V W C . N U C Y N I C L N   B H B   C ] V { V | B o.B   N U B ` B   N ` M ..V T C ` V . V Q V   B W B ..V | B Q N . Z [ V W ",
"| Z   C ^ C ` V . N ..B T B P B _ V   M W C   N ` C U N } B W B   N { C [ Z   M | N } N { M [ M   V %.V   B %.B R N  .B [ V   V ",
"B o.V U C ] C   B _ N   V Y Z ` B ] N W N   B [ V | N   N [ N R V T V } N   N ` B   V [ N W M E N } M   M R Z Q B   N ` C | M R ",
"  N { V W V ` B Q C . M | V { N   B Y B P B { B ` C   M ] M   B } C T N Y C ] B   B ` V R V   V Y B #.B Y C ] B   V Q C   C { V ",
"N ` B   C T C { B _ N ..V . M T C W N . N Q V T B [ V [ V   V [ C   B I N | B ' B W N   V [ B ` M . M _ B X.N P B [ C   V [ N   ",
"T V T B . V R B . B Q B W M } N [ V   V _ B Y B   B Y V [ B [ B ` N   B Q B   B U B U B } B _ m   N | B U V   N I C ..N | B [ V ",
"N Q V . n T V ..N . C O.B T N T M ] C . V { B { V   Z [ B ` V | N   B ] B  .V . B Y C [ B Y B [ C   V [ N } C   M | V ` V } M . ",
"} C Y N   M W B { M } C   B ` B Q V   V [ N T V [ V R C   B _ M E B   V W C _ N T V   V ] B [ B . B ..N [ m ` B [ N   M ` N Y M ",
"C   C #.M ` V T B [ M   V } B I V   V W B ` C | C   N T N ] m   V ( B Q N Y B ] C . B | C T N   M } N } V R M   N Y M ` B   B [ ",
"] V [ M { V   B ` V ' N   N ` C +.C &.N   N O.N } C   N } C ..N ] B [ V   N [ B ` C   N } C { V Y N . M o.B ` V   C [ C | B  .C ",
"V ..C   C | N } m . B ] C W V O.V   m ] B [ B   C | V Q B [ M o.M   C O.B } B   N [ V ' V Q N   C  .N +.B   V ..M o.N | V } V   ",
"..V ] Z   V ` B o.B o.N } V   B &.C ..C   B | C } V O.m   M X.B R N . B } C O.B [ B ` Z   B ..M +.B   B } B } V X.C   B W B Q B ",
"B   B &.B ` B ` N   B ..V X.B   M } B o.N [ N  .B   B | B ` B   V  .V [ C } B   N ` B @.N . B o.N ` B o.V @.B   N o.N ] V . n o.",
"] Z ` M | V   N ] M { V   B } B ..B X.V { V   C ..B ..B   C ` n  .V ] B   M ..C | N . B ] B ` V ` B { C   M ] B ] V   N | V ` m "
};
